<?xml version="1.0" encoding="utf-8"?>
<!-- Generator: Adobe Illustrator 22.0.1, SVG Export Plug-In . SVG Version: 6.00 Build 0)  -->
<svg version="1.1" id="Layer_1" xmlns="http://www.w3.org/2000/svg" xmlns:xlink="http://www.w3.org/1999/xlink" x="0px" y="0px"
	 viewBox="0 0 2844 2392" style="enable-background:new 0 0 2844 2392;" xml:space="preserve">
<style type="text/css">
	.st0{fill:#CC8C42;}
	.st1{fill:#EDA34D;}
	.st2{fill:#E09A49;}
	.st3{fill:#F7CA88;}
	.st4{fill:#6B5137;}
	.st5{fill:#F2B661;}
	.st6{fill:#F2C98D;}
	.st7{fill:#82684F;}
</style>
<g id="XMLID_1_">
	<path id="XMLID_30_" class="st0" d="M1454.6,2390h-181.9l0,0c0-44.4,36-80.4,80.4-80.4l102.1,2.1L1454.6,2390z"/>
	<polygon id="XMLID_29_" class="st0" points="1455.1,2313.3 1372.3,2313.3 1351.1,1741.3 1214,1220.7 1499,1166.2 	"/>
	<path id="XMLID_28_" class="st0" d="M2284.7,2390h-181.9l0,0c0-44.4,36-80.4,80.4-80.4l101.8,2.1L2284.7,2390z"/>
	<path id="XMLID_27_" class="st1" d="M2543.1,2390h-181.9l0,0c0-44.4,36-80.4,80.4-80.4l101.8,2.1L2543.1,2390z"/>
	<polygon id="XMLID_26_" class="st0" points="2284.7,2320.5 2189.6,2320.5 2156.1,1674.6 1915.8,1166.8 2318.2,1166.8 	"/>
	<path id="XMLID_25_" class="st1" d="M1187.6,2390h-181.9l0,0c0-44.4,36-80.4,80.4-80.4l102.1,2.1L1187.6,2390z"/>
	<path id="XMLID_24_" class="st1" d="M1919.8,250.3l-16.5-22.1c-90.7-121.5-189.1-174.1-332.9-126.2c-39,13-77.2,31-114.2,53.7
		c-45.8,28.2-97.5,143.2-274.7,159.3c-67.1,6.1-128.3,40.7-167.4,95.6c-48,67.5-128.8,323.7-337.2,323
		c-274.2-0.9-174.8-217-295.8-615.2l-195.6,53.4c-63.9,1056.8,671.4,911.3,671.4,911.3c90.3,261.8,302.3,277.6,628.1,255.3
		c59.2-4.1,500.4-100.9,559.4-107.4l532.6,38.5l4.2-113.5c-1.3-93.1-37.7-461.3-249.5-609C2233.4,478.5,2144.1,482,1919.8,250.3z"/>
	<polygon id="XMLID_23_" class="st1" points="2543.4,2331.4 2448.2,2331.4 2414.7,1674.6 2174.4,1166.8 2581,1166.8 	"/>
	<polygon id="XMLID_22_" class="st1" points="1188.1,2313.3 1105.3,2313.3 1084.1,1741.3 947,1220.7 1232,1166.2 	"/>
	<g id="XMLID_4_">
		<g id="XMLID_19_">
			<path id="XMLID_21_" class="st2" d="M157.1,108.7c-23.7-53.5-54.5-40.9-102.6-62.2c-30.1-13.3-17.8,68.7-2.7,97.9
				c15,29.3,82.5,34.8,111.8,19.7C192.8,149.1,170.5,138.8,157.1,108.7z"/>
			<path id="XMLID_20_" class="st0" d="M46.8,80c-3.9,13.8,11.6,57.5,29.7,75.5c10.5,10.3,27.6,14.1,40.7,8.9c3.5-1.4,6.5-3.4,9-5.9
				c7.5-7.6,8.2-17.8,7.9-23.3c-0.5-10.1-20.4-13.2-27.2-19.9C88.7,97.3,61.4,76.2,46.8,80z"/>
		</g>
		<g id="XMLID_16_">
			<path id="XMLID_18_" class="st2" d="M408.9,108.7c23.7-53.5,54.6-40.9,102.6-62.2c30.1-13.3,17.8,68.7,2.7,97.9
				c-15,29.3-82.5,34.8-111.8,19.7C373.2,149.1,395.5,138.8,408.9,108.7z"/>
			<path id="XMLID_17_" class="st0" d="M519.2,80c3.9,13.8-11.6,57.5-29.7,75.5c-10.5,10.3-27.6,14.1-40.7,8.9
				c-3.5-1.4-6.5-3.4-9-5.9c-7.5-7.6-8.2-17.8-7.9-23.3c0.5-10.1,20.4-13.2,27.2-19.9C477.3,97.3,504.6,76.2,519.2,80z"/>
		</g>
		<path id="XMLID_15_" class="st1" d="M285.3,441.7L285.3,441.7c-86.7,0-160.4-36.7-176.9-120.5c-1.7-8.5-1.5-61.9,0.1-70.4
			l15.3-32.5c7.1-119,40.5-183.9,159.7-184.1c1.4,0,2.9,0,4.3,0c119,0.9,152.1,65.3,159.1,184.1l15.3,32.5
			c1.6,8.5,1.7,61.9,0.1,70.4C445.7,405,372,441.7,285.3,441.7z"/>
		<path id="XMLID_14_" class="st1" d="M491.5,220.5c0,87.2-412.4,87.2-412.4,0s85-100.7,206.2-100.7S491.5,133.3,491.5,220.5z"/>
		<path id="XMLID_13_" class="st3" d="M214.5,229.5c0-28.8,31.7-80.6,70.7-80.6s70.7,51.8,70.7,80.6s-31.7,23.7-70.7,23.7
			S214.5,258.3,214.5,229.5z"/>
		<circle id="XMLID_12_" class="st4" cx="448.8" cy="209.5" r="28.7"/>
		<circle id="XMLID_11_" class="st4" cx="121.5" cy="209.5" r="28.7"/>
		<path id="XMLID_10_" class="st5" d="M177.8,347.2c0-85.6,48.1-90.7,107.4-90.7s107.4,5.1,107.4,90.7s-48.1,120-107.4,120
			S177.8,432.8,177.8,347.2z"/>
		<path id="XMLID_9_" class="st0" d="M385,383.2c0,26.6-63,63.8-99.7,31.4c-32.1,33.2-99.7-4.7-99.7-31.4
			c0-26.6,44.6-45.3,99.7-45.3C340.3,337.9,385,356.6,385,383.2z"/>
		<path id="XMLID_8_" class="st6" d="M402.6,346.6c0,69-108.3,105.6-117.3,16.9c-14.6,90.4-117.3,52.1-117.3-16.9
			c0-69,42.5-128,117.3-128S402.6,277.5,402.6,346.6z"/>
		<path id="XMLID_7_" class="st5" d="M368.5,234.4c0,26.6-37.3,51.2-83.3,51.2c-46,0-83.3-24.6-83.3-51.2
			c0-26.6,37.3-45.3,83.3-45.3C331.2,189.1,368.5,207.8,368.5,234.4z"/>
		<path id="XMLID_6_" class="st7" d="M232.3,240.6c-0.1-1.2,3.2-3.6,4.1-4c2.8-1.5,5.5-0.8,8.4-0.2c6.7,1.4,13.3,3.7,19.4,6.8
			c6.4,3.3,12.6,7.7,16.8,13.6c1.2,1.7,8.1,12.8,1.9,12.2c-1-0.1-2.5-1.7-3.2-2.2c-2.3-1.8-4.7-3.4-7.3-4.7
			c-5.8-2.9-11.9-4.8-18.1-6.4c-3.4-0.9-6.8-1.6-10.2-2.3c-2.4-0.5-5.7-0.5-7.8-1.8C233.1,249.8,230.3,244.1,232.3,240.6z"/>
		<path id="XMLID_5_" class="st7" d="M344.3,240.6c0.1-1.2-3.2-3.6-4.1-4c-2.8-1.5-5.5-0.8-8.4-0.2c-6.7,1.4-13.3,3.7-19.4,6.8
			c-6.4,3.3-12.6,7.7-16.8,13.6c-1.2,1.7-8.1,12.8-1.9,12.2c1-0.1,2.5-1.7,3.2-2.2c2.3-1.8,4.7-3.4,7.3-4.7
			c5.8-2.9,11.9-4.8,18.1-6.4c3.4-0.9,6.8-1.6,10.2-2.3c2.4-0.5,5.7-0.5,7.8-1.8C343.5,249.8,346.3,244.1,344.3,240.6z"/>
	</g>
	<path id="XMLID_3_" class="st1" d="M2759.6,1343h-40.4c-62.8-185.3-47.1-393.6-150.7-485.2c-94.6-83.7-206.1-151.3-207.1-151.1
		l-6.4-74.7c5-0.8,124.4,70.7,233.5,166.6C2702,898.4,2699,1157.8,2759.6,1343z"/>
	<path id="XMLID_2_" class="st0" d="M2773.8,1336.6c-18.4-18.1-53.3-9.9-60.7,14.7c-6.6,21.7-4.1,56.9,28.1,112.4
		c69.4,119.5,58.8,100,58.8,100S2832.5,1394.3,2773.8,1336.6z"/>
</g>
</svg>
