<?xml version="1.0" encoding="utf-8"?>
<!-- Generator: Adobe Illustrator 22.0.1, SVG Export Plug-In . SVG Version: 6.00 Build 0)  -->
<svg version="1.1" xmlns="http://www.w3.org/2000/svg" xmlns:xlink="http://www.w3.org/1999/xlink" x="0px" y="0px"
	 viewBox="0 0 800 431.6" style="enable-background:new 0 0 800 431.6;" xml:space="preserve">
<style type="text/css">
	.st0{fill:#FFFFFF;}
	.st1{fill:#F8C67B;}
	.st2{fill:#D6902A;}
	.st3{opacity:0.57;}
	.st4{fill:#D97E31;}
	.st5{fill:#9F703A;}
	.st6{fill:#F7BD73;}
	.st7{fill:#94A525;}
	.st8{fill:#BADB0E;}
	.st9{fill:#DAE954;}
	.st10{fill:#B68350;}
	.st11{fill:#8C663C;}
	.st12{fill:#775731;}
	.st13{fill:#FEC750;}
	.st14{opacity:0.61;fill:#9AD3DB;}
</style>
<g id="background">
</g>
<g id="objects">
	<g>
		<rect x="0" y="-0.2" class="st0" width="800" height="405.9"/>
		<g>
			<polygon class="st1" points="311.8,405.6 39.6,405.6 167.9,242.3 			"/>
			<polygon class="st2" points="118.4,405.6 39.6,405.6 167.9,242.3 167.1,244.9 			"/>
			<g class="st3">
				<path class="st2" d="M135.4,390.2h144.2c0.6,0,1.1-0.5,1.1-1.1c0-0.6-0.5-1.1-1.1-1.1H135.4c-0.6,0-1.1,0.5-1.1,1.1
					C134.2,389.7,134.8,390.2,135.4,390.2z"/>
			</g>
			<g class="st3">
				<path class="st2" d="M158.2,378.7h58.9c0.6,0,1.1-0.5,1.1-1.1c0-0.6-0.5-1.1-1.1-1.1h-58.9c-0.6,0-1.1,0.5-1.1,1.1
					C157.1,378.2,157.6,378.7,158.2,378.7z"/>
			</g>
			<g class="st3">
				<path class="st2" d="M221.2,366.2h32c0.6,0,1.1-0.5,1.1-1.1c0-0.6-0.5-1.1-1.1-1.1h-32c-0.6,0-1.1,0.5-1.1,1.1
					C220.1,365.7,220.6,366.2,221.2,366.2z"/>
			</g>
			<g class="st3">
				<path class="st2" d="M155.1,352.5h48.1c0.6,0,1.1-0.5,1.1-1.1c0-0.6-0.5-1.1-1.1-1.1h-48.1c-0.6,0-1.1,0.5-1.1,1.1
					C154,352,154.5,352.5,155.1,352.5z"/>
			</g>
			<g class="st3">
				<path class="st2" d="M222.9,343.9h12.6c0.6,0,1.1-0.5,1.1-1.1c0-0.6-0.5-1.1-1.1-1.1h-12.6c-0.6,0-1.1,0.5-1.1,1.1
					C221.8,343.4,222.3,343.9,222.9,343.9z"/>
			</g>
			<g class="st3">
				<path class="st2" d="M175.3,333.7h30.9c0.6,0,1.1-0.5,1.1-1.1c0-0.6-0.5-1.1-1.1-1.1h-30.9c-0.6,0-1.1,0.5-1.1,1.1
					C174.2,333.2,174.7,333.7,175.3,333.7z"/>
			</g>
			<g class="st3">
				<path class="st2" d="M213.1,327.2h9.3c0.6,0,1.1-0.5,1.1-1.1c0-0.6-0.5-1.1-1.1-1.1h-9.3c-0.6,0-1.1,0.5-1.1,1.1
					C211.9,326.7,212.4,327.2,213.1,327.2z"/>
			</g>
			<g class="st3">
				<path class="st2" d="M177.2,342.6h35.1c0.6,0,1.1-0.5,1.1-1.1c0-0.6-0.5-1.1-1.1-1.1h-35.1c-0.6,0-1.1,0.5-1.1,1.1
					C176.1,342.1,176.6,342.6,177.2,342.6z"/>
			</g>
			<g class="st3">
				<path class="st2" d="M167.9,313.1H204c0.6,0,1.1-0.5,1.1-1.1s-0.5-1.1-1.1-1.1h-36.1c-0.6,0-1.1,0.5-1.1,1.1
					S167.3,313.1,167.9,313.1z"/>
			</g>
			<g class="st3">
				<path class="st2" d="M181.8,300.8h27.5c0.6,0,1.1-0.5,1.1-1.1c0-0.6-0.5-1.1-1.1-1.1h-27.5c-0.6,0-1.1,0.5-1.1,1.1
					C180.7,300.3,181.2,300.8,181.8,300.8z"/>
			</g>
			<g class="st3">
				<path class="st2" d="M172.2,288.4h13.9c0.6,0,1.1-0.5,1.1-1.1c0-0.6-0.5-1.1-1.1-1.1h-13.9c-0.6,0-1.1,0.5-1.1,1.1
					C171.1,287.8,171.6,288.4,172.2,288.4z"/>
			</g>
			<g class="st3">
				<path class="st2" d="M177.4,275h9.5c0.6,0,1.1-0.5,1.1-1.1c0-0.6-0.5-1.1-1.1-1.1h-9.5c-0.6,0-1.1,0.5-1.1,1.1
					C176.3,274.5,176.8,275,177.4,275z"/>
			</g>
			<g class="st3">
				<path class="st2" d="M153.8,324.6h27.7c0.6,0,1.1-0.5,1.1-1.1c0-0.6-0.5-1.1-1.1-1.1h-27.7c-0.6,0-1.1,0.5-1.1,1.1
					C152.7,324.1,153.2,324.6,153.8,324.6z"/>
			</g>
			<g class="st3">
				<path class="st2" d="M167.3,365.9h23.1c0.6,0,1.1-0.5,1.1-1.1c0-0.6-0.5-1.1-1.1-1.1h-23.1c-0.6,0-1.1,0.5-1.1,1.1
					C166.2,365.4,166.7,365.9,167.3,365.9z"/>
			</g>
			<g class="st3">
				<path class="st2" d="M242.2,379.6h23.6c0.6,0,1.1-0.5,1.1-1.1s-0.5-1.1-1.1-1.1h-23.6c-0.6,0-1.1,0.5-1.1,1.1
					S241.6,379.6,242.2,379.6z"/>
			</g>
		</g>
		<g>
			<polygon class="st1" points="652.7,405.6 380.5,405.6 508.8,242.3 			"/>
			<polygon class="st2" points="459.3,405.6 380.5,405.6 508.8,242.3 508,244.9 			"/>
			<g class="st3">
				<path class="st2" d="M476.3,390.2h144.2c0.6,0,1.1-0.5,1.1-1.1c0-0.6-0.5-1.1-1.1-1.1H476.3c-0.6,0-1.1,0.5-1.1,1.1
					C475.1,389.7,475.6,390.2,476.3,390.2z"/>
			</g>
			<g class="st3">
				<path class="st2" d="M499.1,378.7h58.9c0.6,0,1.1-0.5,1.1-1.1c0-0.6-0.5-1.1-1.1-1.1h-58.9c-0.6,0-1.1,0.5-1.1,1.1
					C498,378.2,498.5,378.7,499.1,378.7z"/>
			</g>
			<g class="st3">
				<path class="st2" d="M562.1,366.2h32c0.6,0,1.1-0.5,1.1-1.1c0-0.6-0.5-1.1-1.1-1.1h-32c-0.6,0-1.1,0.5-1.1,1.1
					C561,365.7,561.5,366.2,562.1,366.2z"/>
			</g>
			<g class="st3">
				<path class="st2" d="M496,352.5h48.1c0.6,0,1.1-0.5,1.1-1.1c0-0.6-0.5-1.1-1.1-1.1H496c-0.6,0-1.1,0.5-1.1,1.1
					C494.9,352,495.4,352.5,496,352.5z"/>
			</g>
			<g class="st3">
				<path class="st2" d="M563.8,343.9h12.6c0.6,0,1.1-0.5,1.1-1.1c0-0.6-0.5-1.1-1.1-1.1h-12.6c-0.6,0-1.1,0.5-1.1,1.1
					C562.7,343.4,563.2,343.9,563.8,343.9z"/>
			</g>
			<g class="st3">
				<path class="st2" d="M516.2,333.7h30.9c0.6,0,1.1-0.5,1.1-1.1c0-0.6-0.5-1.1-1.1-1.1h-30.9c-0.6,0-1.1,0.5-1.1,1.1
					C515.1,333.2,515.6,333.7,516.2,333.7z"/>
			</g>
			<g class="st3">
				<path class="st2" d="M554,327.2h9.3c0.6,0,1.1-0.5,1.1-1.1c0-0.6-0.5-1.1-1.1-1.1H554c-0.6,0-1.1,0.5-1.1,1.1
					C552.8,326.7,553.3,327.2,554,327.2z"/>
			</g>
			<g class="st3">
				<path class="st2" d="M518.1,342.6h35.1c0.6,0,1.1-0.5,1.1-1.1c0-0.6-0.5-1.1-1.1-1.1h-35.1c-0.6,0-1.1,0.5-1.1,1.1
					C517,342.1,517.5,342.6,518.1,342.6z"/>
			</g>
			<g class="st3">
				<path class="st2" d="M508.8,313.1h36.1c0.6,0,1.1-0.5,1.1-1.1s-0.5-1.1-1.1-1.1h-36.1c-0.6,0-1.1,0.5-1.1,1.1
					S508.2,313.1,508.8,313.1z"/>
			</g>
			<g class="st3">
				<path class="st2" d="M522.7,300.8h27.5c0.6,0,1.1-0.5,1.1-1.1c0-0.6-0.5-1.1-1.1-1.1h-27.5c-0.6,0-1.1,0.5-1.1,1.1
					C521.6,300.3,522.1,300.8,522.7,300.8z"/>
			</g>
			<g class="st3">
				<path class="st2" d="M513.1,288.4H527c0.6,0,1.1-0.5,1.1-1.1c0-0.6-0.5-1.1-1.1-1.1h-13.9c-0.6,0-1.1,0.5-1.1,1.1
					C512,287.8,512.5,288.4,513.1,288.4z"/>
			</g>
			<g class="st3">
				<path class="st2" d="M518.3,275h9.5c0.6,0,1.1-0.5,1.1-1.1c0-0.6-0.5-1.1-1.1-1.1h-9.5c-0.6,0-1.1,0.5-1.1,1.1
					C517.2,274.5,517.7,275,518.3,275z"/>
			</g>
			<g class="st3">
				<path class="st2" d="M494.7,324.6h27.7c0.6,0,1.1-0.5,1.1-1.1c0-0.6-0.5-1.1-1.1-1.1h-27.7c-0.6,0-1.1,0.5-1.1,1.1
					C493.5,324.1,494,324.6,494.7,324.6z"/>
			</g>
			<g class="st3">
				<path class="st2" d="M508.2,365.9h23.1c0.6,0,1.1-0.5,1.1-1.1c0-0.6-0.5-1.1-1.1-1.1h-23.1c-0.6,0-1.1,0.5-1.1,1.1
					C507.1,365.4,507.6,365.9,508.2,365.9z"/>
			</g>
			<g class="st3">
				<path class="st2" d="M583.1,379.6h23.6c0.6,0,1.1-0.5,1.1-1.1s-0.5-1.1-1.1-1.1h-23.6c-0.6,0-1.1,0.5-1.1,1.1
					S582.5,379.6,583.1,379.6z"/>
			</g>
		</g>
		<g>
			<path class="st4" d="M671.9,254.4c0,0-10.5,19.9-18,39c-7.5,19.1-12.4,38.7-12.4,38.7l-44.1,15.1c0,0,10.5-27.7,20.2-47.6
				c9.7-19.9,23.7-31.4,23.7-31.4L671.9,254.4z"/>
			<path class="st5" d="M641.5,332.1c0,0,3.5,11.3,7.3,27.1s1.3,36.8-1.1,47.8h-82c0,0,26.1-4,34.1-10.8c8.1-6.7,6.7-27.4,5.9-30.9
				c-0.8-3.5-8.3-18.3-8.3-18.3L641.5,332.1z"/>
			<path class="st1" d="M647.7,407.1c0,0,5.6-42.2-6.2-75c0,0,12.6-48.4,30.4-77.7c0,0,18.3-1.9,33.6-0.8c15.3,1.1,16.6,3,23.4,10.5
				c2.1,2.3,4,4.6,5.7,6.8c3.8,4.9,6.8,9.3,8.8,12.3c3,4.3,5.1,7.8,3.8,12.1c-1.4,4.3-3,6.7-0.6,12.1c2.4,5.4,4.6,7,4.3,12.4
				c-0.3,5.4,0,14.8,0,14.8l-0.8,12.3c0,0-9.1,7-15.6,8.3c-6.5,1.3-10.5,3-14.2,11c-3.8,8.1-5.7,14.8-2.5,21
				c3.2,6.2,24.2,18,28.5,20.4c4.3,2.4,10.8,7.5,10.8,7.5L647.7,407.1z"/>
			<path class="st2" d="M671.9,254.4c0,0-10.7,27.2-11.6,51.1c-0.9,23.8,0.9,36.6,3.2,40.7c2.3,4.1,13.6,18.5,18.6,23.5
				c5,5,24.4,22.9,28.9,26.2c4.5,3.2,7.7,5.6,9.7,2.7c2-2.9,2.3-6.3,2.3-6.3l3-26.5l24-18.8c0,0-3.6-1.4-14.5-2.5
				c-10.9-1.1-17.4-7.2-21.7-14c-4.3-6.8-18.1-22.4-23.3-30.8c-5.2-8.4-8.8-10.2-3.6-19.9c5.2-9.7,17.9-10.4,17.9-10.4L671.9,254.4z
				"/>
			<path class="st6" d="M737.6,344.4c0,0-19.2-0.4-26.2-8.7c-7-8.3-30.4-43.7-30.6-48c-0.3-4.3,1.3-8.9,6.5-13.5
				c5.1-4.7-15.3-19.8-15.3-19.8s18.3-1.9,33.6-0.8c15.3,1.1,16.6,3,23.4,10.5c2.1,2.3,4,4.6,5.7,6.8c0.2,0.5,0.2,0.8,0.2,0.8
				s-17.1-5.2-24.7-3.7c-7.7,1.5-11.6,6.6-12.3,11.3c-0.8,4.7-2.2,12,0,13.5c2.2,1.5,16.1,4.8,23.7,6.6c7.5,1.8,13,9.1,11.1,13.6
				c-1.9,4.4-12.8,10.5-12.8,13c0,2.5,11,4.7,14,8.9C736.7,338.9,737.6,344.4,737.6,344.4z"/>
			<path class="st1" d="M677.5,292.2c0,0,3.2-3.9,0.8-10.1c-2.4-6.2-9-7-13.2-5.2c-4.2,1.7-8.1,5.2-4.4,18.5
				c3.6,13.3,9.9,15.6,14,16.1c4,0.5,9.4,0.7,8.7-3.9c-0.7-4.6-2.3-7.5-2.7-9.8C680.3,295.5,677.5,292.2,677.5,292.2z"/>
			<path class="st2" d="M675.6,288.7c0,0-5.1,0.7-6,3.4c-0.9,2.7,1.1,5.5,3.9,8.3c2.8,2.8,6.7,3.2,5,0.4c-1.7-2.8-2-3.2-3.1-4.3
				c-1.1-1.1-1.9-2.6-0.9-4.4C675.4,290.1,675.6,288.7,675.6,288.7z"/>
			<path class="st2" d="M705.5,288.7c0,0,4.8-2.3,7.7-5.4c2.8-3.1,9.3-1.1,11.2-0.5c1.9,0.5-0.3,5.6,0.3,7.5
				c0.5,1.9,2.8,4.8,2.8,4.8s-8.9-2-11.8-3.4C712.6,290.4,710.3,289.5,705.5,288.7z"/>
			<path class="st2" d="M735.2,287.1c0,0-2.8,4.6-2.3,7.1c0.5,2.6,5,12,5.1,12.4c0.1,0.4-1.2-5.9-1.2-9.8s1.2-4.2,0.8-6.6
				C737.2,287.7,735.2,287.1,735.2,287.1z"/>
			<path class="st2" d="M728.2,325.5c0,0,5.9-1.2,11.8-0.5c5.9,0.7,9.9,3.4,9.9,3.4s-1.1,2-2.6,1.5
				C745.9,329.3,746.6,327.5,728.2,325.5z"/>
			<path class="st5" d="M677.2,313.4c0.5,0-4.6,1.5-6.1,8.7c-1.5,7.2-4.3,22.6-3.6,24.9c0.7,2.3,4.7,7.8,5.6,8.6
				c0.9,0.8-5.3-4.6-7.4-8.5c-2.2-3.9-0.9-9.8-0.5-13.8c0.4-4,2.7-13.1,0.4-17.7c-2.2-4.6-4.2-7.7-4.3-13.8
				C661.2,301.8,665.3,313.5,677.2,313.4z"/>
			<path class="st2" d="M737.9,293.4c0,0,2.6-3.5,4.7-3.4c2.2,0.1,3.6,1.5,3.7,3c0.1,1.5-0.2,3.5-0.4,5c-0.3,1.5-0.6,5.4-0.3,5.9
				s-7.7-4.2-8.2-4.3S736.8,296,737.9,293.4z"/>
			<path class="st2" d="M714.6,278.2c1.8-0.7,5.8-0.4,9,0.8c3.2,1.2,7.3,2.3,7.3,2.3s-4.1-0.4-9.5-0.9s-7.5-1.8-9-1.7
				C711.1,278.9,714.6,278.2,714.6,278.2z"/>
			<path class="st2" d="M739.8,286.6c0,0,0.6-0.4,3,0.7c2.4,1.2,3.1,2.2,3.1,2.2s-4.2-1.5-5.5-1.7
				C739.3,287.6,738,287.2,739.8,286.6z"/>
		</g>
		<g>
			<polygon class="st1" points="546.5,405.6 157.3,405.6 340.7,172 			"/>
			<polygon class="st2" points="269.9,405.6 157.3,405.6 340.7,172 339.6,175.7 			"/>
			<g class="st3">
				<path class="st2" d="M294.2,383.6h206.3c0.9,0,1.6-0.7,1.6-1.6c0-0.9-0.7-1.6-1.6-1.6H294.2c-0.9,0-1.6,0.7-1.6,1.6
					C292.6,382.9,293.4,383.6,294.2,383.6z"/>
			</g>
			<g class="st3">
				<path class="st2" d="M326.9,367.1h84.3c0.9,0,1.6-0.7,1.6-1.6c0-0.9-0.7-1.6-1.6-1.6h-84.3c-0.9,0-1.6,0.7-1.6,1.6
					C325.3,366.4,326,367.1,326.9,367.1z"/>
			</g>
			<g class="st3">
				<path class="st2" d="M417,349.3h45.7c0.9,0,1.6-0.7,1.6-1.6c0-0.9-0.7-1.6-1.6-1.6H417c-0.9,0-1.6,0.7-1.6,1.6
					C415.4,348.6,416.2,349.3,417,349.3z"/>
			</g>
			<g class="st3">
				<path class="st2" d="M322.4,329.6h68.8c0.9,0,1.6-0.7,1.6-1.6s-0.7-1.6-1.6-1.6h-68.8c-0.9,0-1.6,0.7-1.6,1.6
					S321.5,329.6,322.4,329.6z"/>
			</g>
			<g class="st3">
				<path class="st2" d="M419.4,317.4h18.1c0.9,0,1.6-0.7,1.6-1.6c0-0.9-0.7-1.6-1.6-1.6h-18.1c-0.9,0-1.6,0.7-1.6,1.6
					C417.8,316.7,418.5,317.4,419.4,317.4z"/>
			</g>
			<g class="st3">
				<path class="st2" d="M351.4,302.8h44.1c0.9,0,1.6-0.7,1.6-1.6c0-0.9-0.7-1.6-1.6-1.6h-44.1c-0.9,0-1.6,0.7-1.6,1.6
					C349.8,302.1,350.5,302.8,351.4,302.8z"/>
			</g>
			<g class="st3">
				<path class="st2" d="M405.3,293.5h13.3c0.9,0,1.6-0.7,1.6-1.6c0-0.9-0.7-1.6-1.6-1.6h-13.3c-0.9,0-1.6,0.7-1.6,1.6
					C403.7,292.8,404.5,293.5,405.3,293.5z"/>
			</g>
			<g class="st3">
				<path class="st2" d="M354,315.5h50.2c0.9,0,1.6-0.7,1.6-1.6c0-0.9-0.7-1.6-1.6-1.6H354c-0.9,0-1.6,0.7-1.6,1.6
					C352.4,314.8,353.2,315.5,354,315.5z"/>
			</g>
			<g class="st3">
				<path class="st2" d="M340.7,273.3h51.6c0.9,0,1.6-0.7,1.6-1.6c0-0.9-0.7-1.6-1.6-1.6h-51.6c-0.9,0-1.6,0.7-1.6,1.6
					C339.2,272.6,339.9,273.3,340.7,273.3z"/>
			</g>
			<g class="st3">
				<path class="st2" d="M360.7,255.7H400c0.9,0,1.6-0.7,1.6-1.6s-0.7-1.6-1.6-1.6h-39.3c-0.9,0-1.6,0.7-1.6,1.6
					S359.8,255.7,360.7,255.7z"/>
			</g>
			<g class="st3">
				<path class="st2" d="M346.9,237.9h19.9c0.9,0,1.6-0.7,1.6-1.6c0-0.9-0.7-1.6-1.6-1.6h-19.9c-0.9,0-1.6,0.7-1.6,1.6
					C345.3,237.2,346,237.9,346.9,237.9z"/>
			</g>
			<g class="st3">
				<path class="st2" d="M354.3,218.8h13.6c0.9,0,1.6-0.7,1.6-1.6s-0.7-1.6-1.6-1.6h-13.6c-0.9,0-1.6,0.7-1.6,1.6
					S353.4,218.8,354.3,218.8z"/>
			</g>
			<g class="st3">
				<path class="st2" d="M320.5,289.7h39.6c0.9,0,1.6-0.7,1.6-1.6s-0.7-1.6-1.6-1.6h-39.6c-0.9,0-1.6,0.7-1.6,1.6
					S319.7,289.7,320.5,289.7z"/>
			</g>
			<g class="st3">
				<path class="st2" d="M340,348.8h33c0.9,0,1.6-0.7,1.6-1.6c0-0.9-0.7-1.6-1.6-1.6h-33c-0.9,0-1.6,0.7-1.6,1.6
					C338.4,348,339.1,348.8,340,348.8z"/>
			</g>
			<g class="st3">
				<path class="st2" d="M447.1,368.4h33.8c0.9,0,1.6-0.7,1.6-1.6c0-0.9-0.7-1.6-1.6-1.6h-33.8c-0.9,0-1.6,0.7-1.6,1.6
					C445.5,367.7,446.2,368.4,447.1,368.4z"/>
			</g>
		</g>
		<g>
			<path class="st7" d="M558.4,379.1c0,0,3.4-0.5,6.8,3.3c3.5,3.8,3.9,6.1,3.9,6.1s1.2-3-2-8c-3.2-5.1-9-2.3-9-2.3L558.4,379.1z"/>
			<path class="st7" d="M557.8,379.1c0,0-3.4-0.5-6.8,3.3c-3.5,3.8-3.9,6.1-3.9,6.1s-1.2-3,2-8c3.2-5.1,9-2.3,9-2.3L557.8,379.1z"/>
			<path class="st8" d="M558.8,378.5c0,0,2.3-2.4,7.4-1.7c5.1,0.8,6.8,2.3,6.8,2.3s-0.9-3-6.6-5c-5.6-2-8.5,3.8-8.5,3.8L558.8,378.5
				z"/>
			<path class="st9" d="M558.9,377.3c0,0,1.2-3.2,6.1-4.5c4.9-1.3,7.2-0.6,7.2-0.6s-2.1-2.4-8-1.9c-6,0.5-6.2,6.9-6.2,6.9
				L558.9,377.3z"/>
			<path class="st8" d="M557.4,378.5c0,0-2.3-2.4-7.4-1.7c-5.1,0.8-6.8,2.3-6.8,2.3s0.9-3,6.6-5c5.6-2,8.5,3.8,8.5,3.8L557.4,378.5z
				"/>
			<path class="st9" d="M557.4,377.3c0,0-1.2-3.2-6.1-4.5c-4.9-1.3-7.2-0.6-7.2-0.6s2.1-2.4,8-1.9c6,0.5,6.2,6.9,6.2,6.9
				L557.4,377.3z"/>
			<path class="st8" d="M557.4,378.1c0,0-0.2-6.1-1.3-8.3c-1.2-2.2-5.1-3.7-5.1-3.7s4-0.6,6.3,1.4c2.2,1.9,2.9,5.3,1.9,8
				c-0.9,2.7-1.3,3.3-1.3,3.3L557.4,378.1z"/>
			<rect x="557.3" y="377.1" class="st10" width="1.9" height="28.6"/>
			<path class="st11" d="M558,378.3c-0.3,0.7-0.9,1.1-1.4,0.9c-0.5-0.2-0.7-0.9-0.4-1.6c0.3-0.7,0.9-1.1,1.4-0.9
				C558.1,376.9,558.2,377.6,558,378.3z"/>
			<path class="st12" d="M559.3,379.4c0.1,0.7-0.3,1.4-0.9,1.4c-0.5,0-1-0.5-1.1-1.3c-0.1-0.7,0.3-1.4,0.9-1.4
				C558.8,378.1,559.3,378.7,559.3,379.4z"/>
			<path class="st11" d="M560.5,377.7c0.3,0.7,0.1,1.4-0.4,1.6c-0.5,0.2-1.1-0.2-1.4-0.9c-0.3-0.7-0.1-1.4,0.4-1.6
				C559.6,376.6,560.3,377,560.5,377.7z"/>
			<path class="st10" d="M559.3,377.6c0,0.8-0.5,1.4-1,1.3s-1-0.6-1-1.4c0-0.8,0.5-1.4,1-1.3C558.9,376.3,559.3,376.9,559.3,377.6z"
				/>
		</g>
		<g>
			<path class="st7" d="M236.8,363.8c0,0,5.3-0.7,10.8,5.2c5.5,5.9,6.1,9.6,6.1,9.6s1.8-4.7-3.2-12.7s-14.3-3.6-14.3-3.6
				L236.8,363.8z"/>
			<path class="st7" d="M235.8,363.8c0,0-5.3-0.7-10.8,5.2c-5.5,5.9-6.1,9.6-6.1,9.6s-1.8-4.7,3.2-12.7s14.3-3.6,14.3-3.6
				L235.8,363.8z"/>
			<path class="st8" d="M237.4,362.7c0,0,3.7-3.9,11.7-2.6c8,1.2,10.7,3.7,10.7,3.7s-1.5-4.8-10.4-7.9c-8.9-3.1-13.4,6-13.4,6
				L237.4,362.7z"/>
			<path class="st9" d="M237.5,360.9c0,0,1.8-5,9.6-7.1c7.8-2.1,11.3-1,11.3-1s-3.3-3.8-12.7-3.1c-9.4,0.7-9.8,11-9.8,11
				L237.5,360.9z"/>
			<path class="st8" d="M235.2,362.7c0,0-3.7-3.9-11.7-2.6c-8,1.2-10.7,3.7-10.7,3.7s1.5-4.8,10.4-7.9c8.9-3.1,13.4,6,13.4,6
				L235.2,362.7z"/>
			<path class="st9" d="M235.1,360.9c0,0-1.8-5-9.6-7.1c-7.8-2.1-11.3-1-11.3-1s3.3-3.8,12.7-3.1c9.4,0.7,9.8,11,9.8,11L235.1,360.9
				z"/>
			<path class="st8" d="M235.2,362.1c0,0-0.3-9.6-2.1-13.1c-1.8-3.5-8-5.9-8-5.9s6.4-0.9,9.9,2.2c3.5,3.1,4.5,8.3,3.1,12.6
				c-1.5,4.3-2,5.3-2,5.3L235.2,362.1z"/>
			<rect x="235" y="360.6" class="st10" width="3.1" height="45.1"/>
			<path class="st11" d="M236.1,362.5c-0.4,1.1-1.4,1.7-2.2,1.4s-1.1-1.5-0.7-2.6c0.4-1.1,1.4-1.7,2.2-1.4
				C236.2,360.3,236.5,361.4,236.1,362.5z"/>
			<path class="st12" d="M238.2,364.3c0.1,1.2-0.5,2.2-1.4,2.3c-0.9,0.1-1.6-0.8-1.7-2c-0.1-1.2,0.5-2.2,1.4-2.3
				C237.3,362.2,238.1,363.1,238.2,364.3z"/>
			<path class="st11" d="M240.1,361.5c0.4,1.1,0.1,2.3-0.7,2.6c-0.8,0.3-1.8-0.3-2.2-1.4c-0.4-1.1-0.1-2.3,0.7-2.6
				C238.7,359.7,239.7,360.4,240.1,361.5z"/>
			<path class="st10" d="M238.1,361.4c0,1.2-0.7,2.1-1.6,2.1c-0.9,0-1.6-1-1.5-2.2c0-1.2,0.7-2.1,1.6-2.1
				C237.5,359.3,238.2,360.2,238.1,361.4z"/>
		</g>
		<g>
			<path class="st7" d="M654.5,363.8c0,0,5.3-0.7,10.8,5.2c5.5,5.9,6.1,9.6,6.1,9.6s1.8-4.7-3.2-12.7c-5-8-14.3-3.6-14.3-3.6
				L654.5,363.8z"/>
			<path class="st7" d="M653.6,363.8c0,0-5.3-0.7-10.8,5.2c-5.5,5.9-6.1,9.6-6.1,9.6s-1.8-4.7,3.2-12.7c5-8,14.3-3.6,14.3-3.6
				L653.6,363.8z"/>
			<path class="st8" d="M655.2,362.7c0,0,3.7-3.9,11.7-2.6c8,1.2,10.7,3.7,10.7,3.7s-1.5-4.8-10.4-7.9c-8.9-3.1-13.4,6-13.4,6
				L655.2,362.7z"/>
			<path class="st9" d="M655.3,360.9c0,0,1.8-5,9.6-7.1c7.8-2.1,11.3-1,11.3-1s-3.3-3.8-12.7-3.1c-9.4,0.7-9.8,11-9.8,11
				L655.3,360.9z"/>
			<path class="st8" d="M653,362.7c0,0-3.7-3.9-11.7-2.6c-8,1.2-10.7,3.7-10.7,3.7s1.5-4.8,10.4-7.9c8.9-3.1,13.4,6,13.4,6
				L653,362.7z"/>
			<path class="st9" d="M652.9,360.9c0,0-1.8-5-9.6-7.1c-7.8-2.1-11.3-1-11.3-1s3.3-3.8,12.7-3.1c9.4,0.7,9.8,11,9.8,11L652.9,360.9
				z"/>
			<path class="st8" d="M653,362.1c0,0-0.3-9.6-2.1-13.1c-1.8-3.5-8-5.9-8-5.9s6.4-0.9,9.9,2.2c3.5,3.1,4.5,8.3,3.1,12.6
				c-1.5,4.3-2,5.3-2,5.3L653,362.1z"/>
			<rect x="652.7" y="360.6" class="st10" width="3.1" height="45.1"/>
			<path class="st11" d="M653.8,362.5c-0.4,1.1-1.4,1.7-2.2,1.4s-1.1-1.5-0.7-2.6c0.4-1.1,1.4-1.7,2.2-1.4
				C654,360.3,654.3,361.4,653.8,362.5z"/>
			<path class="st12" d="M655.9,364.3c0.1,1.2-0.5,2.2-1.4,2.3c-0.9,0.1-1.6-0.8-1.7-2c-0.1-1.2,0.5-2.2,1.4-2.3
				C655.1,362.2,655.8,363.1,655.9,364.3z"/>
			<path class="st11" d="M657.9,361.5c0.4,1.1,0.1,2.3-0.7,2.6c-0.8,0.3-1.8-0.3-2.2-1.4c-0.4-1.1-0.1-2.3,0.7-2.6
				C656.4,359.7,657.4,360.4,657.9,361.5z"/>
			<path class="st10" d="M655.9,361.4c0,1.2-0.7,2.1-1.6,2.1c-0.9,0-1.6-1-1.5-2.2c0-1.2,0.7-2.1,1.6-2.1
				C655.2,359.3,655.9,360.2,655.9,361.4z"/>
		</g>
		
			<ellipse transform="matrix(0.1881 -0.9822 0.9822 0.1881 406.1238 764.494)" class="st13" cx="665.4" cy="136.6" rx="44.4" ry="44.4"/>
		<path class="st14" d="M383,150.8c-3,0-5.8,0.8-8.2,2.3c0.1-1.1,0.2-2.2,0.2-3.3c0-13.8-11.2-25-25-25c-7.6,0-14.4,3.4-19,8.7
			c-3.3-4.1-8.4-6.7-14-6.7c-1.1,0-2.1,0.1-3.2,0.3c-4.4-18-20.5-31.3-39.8-31.3c-21.3,0-38.8,16.2-40.8,37c-2.3-0.6-4.7-1-7.2-1
			c-14.9,0-27,12.1-27,27c0,1,0.1,2,0.2,3h42.3h11.3h31.1h22.6h4.6h11.7h5.2h8h31.7h4.1h26.3C396.1,155.4,390.1,150.8,383,150.8z"/>
		<path class="st14" d="M646.8,80.5h27h19.6h4h10.2h4.5h7h27.6h3.6h22.8c-1.8-5.6-7-9.6-13.2-9.6c-2.6,0-5.1,0.7-7.1,2
			C753,72,753,71,753,70.1c0-12-9.7-21.7-21.7-21.7c-6.6,0-12.5,2.9-16.5,7.6c-2.9-3.6-7.3-5.9-12.2-5.9c-0.9,0-1.9,0.1-2.8,0.3
			c-3.8-15.6-17.9-27.2-34.6-27.2c-18.5,0-33.7,14.1-35.5,32.2c-2-0.6-4.1-0.9-6.3-0.9c-13,0-23.5,10.5-23.5,23.5
			c0,0.9,0.1,1.8,0.1,2.6H637H646.8z"/>
		<path class="st14" d="M79.2,92.8h52.4h13.9h5.4H170h6.4h0.1h18.8h24.6h24.7c-4.2-9.4-13.7-16-24.7-16c-2.1,0-4.1,0.2-6.1,0.7
			c-4.6-5.3-11.4-8.7-18.9-8.7c-6.9,0-13.2,2.8-17.7,7.4c-2.9-6.1-9.1-10.4-16.3-10.4c-0.4,0-0.9,0-1.3,0.1
			c-1.4-7.4-7.9-13.1-15.7-13.1c-3.6,0-6.8,1.2-9.5,3.1c-6.8-5.1-15.3-8.1-24.5-8.1c-17.4,0-32.2,10.8-38.2,26.1
			c-2.3-1.3-5-2.1-7.8-2.1c-8.8,0-16,7.2-16,16c0,1.7,0.3,3.4,0.8,5h20.4H79.2z"/>
		<path class="st14" d="M526.8,116.2c-0.5-7.5-6.6-13.4-14.2-13.4c-1.6,0-3.1,0.3-4.5,0.7c-2.8-9.2-11.3-15.9-21.4-15.9
			c-9.2,0-17,5.5-20.5,13.4c-1.7-0.6-3.5-0.9-5.4-0.9c-7.5,0-13.8,5.2-15.6,12.2c-2.3-1.1-4.8-1.7-7.5-1.7
			c-9.8,0-17.7,7.9-17.7,17.7c0,2.3,0.5,4.5,1.3,6.6h20.6h8.2h4.1h11.3h44.7h13.1h18.5c0.1-0.9,0.2-1.8,0.2-2.7
			C542,123.7,535.3,116.7,526.8,116.2z"/>
		<path class="st11" d="M310.1,381.8c-0.2-0.5-0.4-1.8-1.4-2.1c-1-0.3-2.9-0.5-3.3-0.9c-0.5-0.5-1-1.1-1.8-0.9
			c-0.8,0.2-1.4-0.9-2-0.1c-1,1.3,0,3.9-1.6,5.7c-1.7,1.9-3.9,1.5-5.7,0.6c-1.9-0.9-2.2-3-4.6-4.4c-2.4-1.4-5-0.8-7.1-2.2
			c-2.2-1.4-2.9-3.7-5.8-1.7c-2.8,2-3.3,3.1-5.7,4c-2.4,0.9-1.7,0.4-3.3,1.6c-0.5,0.4-1.5,1.2-2.2,2.4c-0.3,0.1-1,2.1-1.3,3.9
			c-0.3,2.1-0.2,3-0.5,4.3c-0.3,1.3-0.7,2-0.4,2c0.3,0,0.5-0.6,0.7-1.4c0.1-0.6,0.2-2.2,0.6-3.3c0.1,2.4,0.2,4.8-0.1,6.3
			c-0.4,2-1.2,4-1.4,4.3c-0.2,0.3,0.5,0.8,0.8,2.6c0.3,1.8,0.8,4.2,0.9,5.2c0.1,1,0.3,1,1.4,1.1c1,0.1,1.1-0.4,0.9-0.6
			c-0.2-0.2-0.7,0.1-1-0.7c-0.4-0.9-0.8-3.9-0.7-4.6c0.1-0.7,0.2-3.6,0.4-4.4c0.2-0.8,1-3.5,1.3-3.7c0.3-0.2,1.2,0.7,1.2,1.7
			c0,1,0.3,0.9,0,2.7c-0.2,1.9-0.4,1.5,0,2.2s2.4,3.9,2.6,4.9c0.2,1,0.5,2.4,0.7,2.5c0.2,0.1,1.4,0.3,1.6,0.3c0.2,0,0.1-0.6-0.3-0.7
			c-0.3-0.2-0.3-0.4-0.7-1.8c-0.5-1.3-1.5-3.2-1.7-5.2c-0.2-2-0.2-5.3-0.2-5.8c0.1-0.5,0.7-0.8,0.8-2.6c0.1-1.8,0.3-2.6,1-3.1
			c0,0,2.2,2.7,6.3,3c4.1,0.3,4.1,0.6,5.3,0.8c1.2,0.2,2.5-0.6,2.5-0.6s-1,3.6-1.6,5.9c-0.6,2.3-1,2.2-1,3.4
			c0.1,1.2-0.3,4.6-0.4,5.2c-0.1,0.6,0,0.9,0.3,1.3c0,0,2.1,0.3,2.4,0.1c0.3-0.2-0.1-0.4-0.7-0.8c-0.6-0.4-0.6-2.1-0.5-2.9
			c0-0.9,0.5-2.2,0.9-3.2c0.4-1.1,0.7-3.3,1.2-4.4c0.5-1.1,1.4-3.5,1.4-3.5s2.6,3.5,2.9,5.2c0.3,1.7,0.1,2.8-0.5,4.4
			c-0.6,1.6-0.7,3-1,3.5s-0.8,0.9-0.7,1.1c0,0.2,0.9,0.9,1.6,1c0.7,0.1,1.3-0.1,1.3-0.4s-0.4-0.9-0.4-1.5c0-0.6,0.2-1.7,0.3-2.2
			c0.2-0.5,0.6-2.9,1-3.9c0.5-1,1.3-2,0.7-2.9c-0.7-0.9-2.8-3.8-3.5-6.7c0,0,2.1-1,2.6-2.2c0,0,4.2,0.3,5.4,0.1
			c2.7-0.4,4.4-1.9,5.2-3.3c0.8-1.4,1.9-3.9,1.9-3.9s1.9-0.3,2.3-0.5c0.5-0.2,1,0.3,1.4,0.3c0.4,0,0.5,0.1,0.8,0.2
			c0.3,0.1,0.6,0,0.6-0.2C310.2,382.2,310.4,382.2,310.1,381.8z"/>
		<path class="st11" d="M487.5,381.8c-0.2-0.5-0.4-1.8-1.4-2.1c-1-0.3-2.9-0.5-3.3-0.9c-0.5-0.5-1-1.1-1.8-0.9
			c-0.8,0.2-1.4-0.9-2-0.1c-1,1.3,0,3.9-1.6,5.7c-1.7,1.9-3.9,1.5-5.7,0.6c-1.9-0.9-2.2-3-4.6-4.4c-2.4-1.4-5-0.8-7.1-2.2
			c-2.2-1.4-2.9-3.7-5.8-1.7c-2.8,2-3.3,3.1-5.7,4c-2.4,0.9-1.7,0.4-3.3,1.6c-0.5,0.4-1.5,1.2-2.2,2.4c-0.3,0.1-1,2.1-1.3,3.9
			c-0.3,2.1-0.2,3-0.5,4.3c-0.3,1.3-0.7,2-0.4,2c0.3,0,0.5-0.6,0.7-1.4c0.1-0.6,0.2-2.2,0.6-3.3c0.1,2.4,0.2,4.8-0.1,6.3
			c-0.4,2-1.2,4-1.4,4.3c-0.2,0.3,0.5,0.8,0.8,2.6c0.3,1.8,0.8,4.2,0.9,5.2c0.1,1,0.3,1,1.4,1.1c1,0.1,1.1-0.4,0.9-0.6
			c-0.2-0.2-0.7,0.1-1-0.7c-0.4-0.9-0.8-3.9-0.7-4.6c0.1-0.7,0.2-3.6,0.4-4.4c0.2-0.8,1-3.5,1.3-3.7c0.3-0.2,1.2,0.7,1.2,1.7
			c0,1,0.3,0.9,0,2.7c-0.2,1.9-0.4,1.5,0,2.2c0.4,0.7,2.4,3.9,2.6,4.9c0.2,1,0.5,2.4,0.7,2.5c0.2,0.1,1.4,0.3,1.6,0.3
			s0.1-0.6-0.3-0.7c-0.3-0.2-0.3-0.4-0.7-1.8c-0.5-1.3-1.5-3.2-1.7-5.2c-0.2-2-0.2-5.3-0.2-5.8c0.1-0.5,0.7-0.8,0.8-2.6
			c0.1-1.8,0.3-2.6,1-3.1c0,0,2.2,2.7,6.3,3c4.1,0.3,4.1,0.6,5.3,0.8c1.2,0.2,2.5-0.6,2.5-0.6s-1,3.6-1.6,5.9c-0.6,2.3-1,2.2-1,3.4
			c0.1,1.2-0.3,4.6-0.4,5.2c-0.1,0.6,0,0.9,0.3,1.3c0,0,2.1,0.3,2.4,0.1c0.3-0.2-0.1-0.4-0.7-0.8c-0.6-0.4-0.6-2.1-0.5-2.9
			c0-0.9,0.5-2.2,0.9-3.2c0.4-1.1,0.7-3.3,1.2-4.4c0.5-1.1,1.4-3.5,1.4-3.5s2.6,3.5,2.9,5.2c0.3,1.7,0.1,2.8-0.5,4.4s-0.7,3-1,3.5
			s-0.8,0.9-0.7,1.1c0,0.2,0.9,0.9,1.6,1c0.7,0.1,1.3-0.1,1.3-0.4s-0.4-0.9-0.4-1.5c0-0.6,0.2-1.7,0.3-2.2c0.2-0.5,0.6-2.9,1-3.9
			c0.5-1,1.3-2,0.7-2.9c-0.7-0.9-2.8-3.8-3.5-6.7c0,0,2.1-1,2.6-2.2c0,0,4.2,0.3,5.4,0.1c2.7-0.4,4.4-1.9,5.2-3.3
			c0.8-1.4,1.9-3.9,1.9-3.9s1.9-0.3,2.3-0.5c0.5-0.2,1,0.3,1.4,0.3c0.4,0,0.5,0.1,0.8,0.2c0.3,0.1,0.6,0,0.6-0.2
			C487.6,382.2,487.8,382.2,487.5,381.8z"/>
	</g>
</g>
</svg>
